<?xml version="1.0" encoding="UTF-8" standalone="no"?>
<!-- Created with Inkscape (http://www.inkscape.org/) -->

<svg
   width="20.5"
   height="12"
   viewBox="0 0 20.5 12"
   version="1.1"
   id="svg1"
   inkscape:version="1.3.2 (091e20ef0f, 2023-11-25, custom)"
   sodipodi:docname="90_charging_false.svg"
   xml:space="preserve"
   xmlns:inkscape="http://www.inkscape.org/namespaces/inkscape"
   xmlns:sodipodi="http://sodipodi.sourceforge.net/DTD/sodipodi-0.dtd"
   xmlns="http://www.w3.org/2000/svg"
   xmlns:svg="http://www.w3.org/2000/svg"><sodipodi:namedview
     id="namedview1"
     pagecolor="#344e41"
     bordercolor="#000000"
     borderopacity="0.25"
     inkscape:showpageshadow="2"
     inkscape:pageopacity="0.0"
     inkscape:pagecheckerboard="0"
     inkscape:deskcolor="#d1d1d1"
     inkscape:document-units="px"
     inkscape:zoom="20.812161"
     inkscape:cx="9.9701323"
     inkscape:cy="9.0331801"
     inkscape:window-width="1920"
     inkscape:window-height="1042"
     inkscape:window-x="0"
     inkscape:window-y="23"
     inkscape:window-maximized="1"
     inkscape:current-layer="layer1" /><defs
     id="defs1"><inkscape:path-effect
       effect="powerclip"
       id="path-effect8"
       is_visible="true"
       lpeversion="1"
       inverse="true"
       flatten="false"
       hide_clip="false"
       message="Use fill-rule evenodd on &lt;b&gt;fill and stroke&lt;/b&gt; dialog if no flatten result after convert clip to paths." /><clipPath
       clipPathUnits="userSpaceOnUse"
       id="clipPath6"><g
         inkscape:label="Clip"
         id="use6" /></clipPath><clipPath
       clipPathUnits="userSpaceOnUse"
       id="clipPath8"><rect
         style="display:none;fill:#8c3939;fill-opacity:1;stroke:#2e7327;stroke-width:0;stroke-dasharray:none"
         id="rect8"
         width="18"
         height="5.5"
         x="7"
         y="13.25"
         rx="0.60000002"
         ry="0.60000002"
         inkscape:label="Actual Inner"
         d="m 7.6,13.25 h 16.8 c 0.3324,0 0.6,0.2676 0.6,0.6 v 4.3 c 0,0.3324 -0.2676,0.6 -0.6,0.6 H 7.6 C 7.2676,18.75 7,18.4824 7,18.15 v -4.3 c 0,-0.3324 0.2676,-0.6 0.6,-0.6 z" /><path
         id="lpe_path-effect8"
         style="fill:#8c3939;fill-opacity:1;stroke:#2e7327;stroke-width:0;stroke-dasharray:none"
         class="powerclip"
         d="m 1,7.25 h 30 v 17.5 H 1 Z m 6.6,6 c -0.3324,0 -0.6,0.2676 -0.6,0.6 v 4.3 c 0,0.3324 0.2676,0.6 0.6,0.6 h 16.8 c 0.3324,0 0.6,-0.2676 0.6,-0.6 v -4.3 c 0,-0.3324 -0.2676,-0.6 -0.6,-0.6 z" /></clipPath></defs><g
     inkscape:label="Layer 1"
     inkscape:groupmode="layer"
     id="layer1"
     transform="translate(-6,-10)"><g
       id="g4"
       inkscape:label="Inner"
       style="display:inline"><rect
         style="display:inline;fill:#f2e8cf;fill-opacity:1;stroke:#2e7327;stroke-width:0;stroke-dasharray:none"
         id="rect1-7"
         width="16.379999"
         height="5.6999998"
         x="6.8999996"
         y="13.15"
         rx="0.54000002"
         ry="0.60000002"
         inkscape:label="Actual Inner" /></g><g
       id="g3"
       inkscape:label="Outline"
       style="display:inline"><path
         style="fill:#f2e8cf;fill-opacity:1;stroke:#f2e8cf;stroke-width:0;stroke-dasharray:none;stroke-opacity:1"
         id="rect1"
         width="20"
         height="7.5"
         x="6"
         y="12.25"
         rx="1"
         ry="1"
         inkscape:label="Main"
         clip-path="url(#clipPath8)"
         inkscape:path-effect="#path-effect8"
         sodipodi:type="rect"
         d="m 7,12.25 h 18 c 0.554,0 1,0.446 1,1 v 5.5 c 0,0.554 -0.446,1 -1,1 H 7 c -0.554,0 -1,-0.446 -1,-1 v -5.5 c 0,-0.554 0.446,-1 1,-1 z" /><rect
         style="fill:#f2e8cf;fill-opacity:1;stroke:#2e7327;stroke-width:0;stroke-dasharray:none"
         id="rect2"
         width="1.5"
         height="3"
         x="25"
         y="14.5"
         rx="0.2"
         ry="0.2"
         inkscape:label="Top" /></g><g
       style="display:none;fill:#bc4749;fill-opacity:1;stroke-width:0;stroke-dasharray:none"
       id="g9"
       transform="matrix(0.4,0.10717968,-0.10717968,0.4,11.564875,7.8851251)"
       inkscape:label="Lightning"><path
         d="M 23.5,13.187 H 16 V 1 L 8.5,18.813 H 16 V 31 Z"
         id="path1"
         style="fill:#bc4749;fill-opacity:1;stroke-width:0;stroke-dasharray:none" /></g></g></svg>
